<svg width="161" height="134" viewBox="0 0 161 134" fill="none" xmlns="http://www.w3.org/2000/svg">
<g clip-path="url(#clip0_1_3)">
<path d="M7.44888 127.688C9.67249 131.817 14.3918 133.59 14.3918 133.59C14.3918 133.59 15.5059 128.667 13.2823 124.538C11.0587 120.409 6.33938 118.636 6.33938 118.636C6.33938 118.636 5.22526 123.559 7.44888 127.688Z" fill="#6C63FF"/>
<path d="M8.97727 126.329C12.9918 128.748 14.5379 133.552 14.5379 133.552C14.5379 133.552 9.57521 134.434 5.56067 132.016C1.54613 129.597 0 124.794 0 124.794C0 124.794 4.96273 123.911 8.97727 126.329Z" fill="#FFA25F"/>
<path d="M98.9838 6.43292H73.9359V6.79122H98.9838V6.43292Z" fill="#F2F2F2"/>
<path d="M92.185 6.70165H91.8272V10.016H92.185V6.70165Z" fill="#F2F2F2"/>
<path d="M81.2713 6.70165H80.9135V10.016H81.2713V6.70165Z" fill="#F2F2F2"/>
<path d="M111.687 23.6314H86.6387V23.9897H111.687V23.6314Z" fill="#F2F2F2"/>
<path d="M93.7953 20.4067H93.4374V23.721H93.7953V20.4067Z" fill="#F2F2F2"/>
<path d="M104.709 20.4067H104.351V23.721H104.709V20.4067Z" fill="#F2F2F2"/>
<path d="M144.965 31.6932H119.917V32.0515H144.965V31.6932Z" fill="#F2F2F2"/>
<path d="M127.073 28.4685H126.715V31.7828H127.073V28.4685Z" fill="#F2F2F2"/>
<path d="M137.987 28.4685H137.629V31.7828H137.987V28.4685Z" fill="#F2F2F2"/>
<path d="M142.46 114.819H117.412V115.178H142.46V114.819Z" fill="#F2F2F2"/>
<path d="M124.568 111.595H124.211V114.909H124.568V111.595Z" fill="#F2F2F2"/>
<path d="M135.482 111.595H135.124V114.909H135.482V111.595Z" fill="#F2F2F2"/>
<path d="M99.6994 57.3119H74.6515V57.6702H99.6994V57.3119Z" fill="#F2F2F2"/>
<path d="M81.8081 54.0872H81.4502V57.4014H81.8081V54.0872Z" fill="#F2F2F2"/>
<path d="M92.7218 54.0872H92.364V57.4014H92.7218V54.0872Z" fill="#F2F2F2"/>
<path d="M107.572 100.487H82.5237V100.846H107.572V100.487Z" fill="#F2F2F2"/>
<path d="M89.6803 97.2626H89.3224V100.577H89.6803V97.2626Z" fill="#F2F2F2"/>
<path d="M100.594 97.2626H100.236V100.577H100.594V97.2626Z" fill="#F2F2F2"/>
<path d="M147.648 87.4093H122.6V87.7676H147.648V87.4093Z" fill="#F2F2F2"/>
<path d="M129.757 84.1846H129.399V87.4989H129.757V84.1846Z" fill="#F2F2F2"/>
<path d="M140.671 84.1846H140.313V87.4989H140.671V84.1846Z" fill="#F2F2F2"/>
<path d="M64.7775 125.797H22.4132V125.492H64.4726V110.691H25.9747L24.1045 106.789L24.3793 106.657L26.1665 110.385H64.7775V125.797Z" fill="#2F2E41"/>
<path d="M28.0516 133.274C29.819 133.274 31.2518 131.839 31.2518 130.07C31.2518 128.3 29.819 126.865 28.0516 126.865C26.2842 126.865 24.8514 128.3 24.8514 130.07C24.8514 131.839 26.2842 133.274 28.0516 133.274Z" fill="#3F3D56"/>
<path d="M59.5963 133.274C61.3637 133.274 62.7965 131.839 62.7965 130.07C62.7965 128.3 61.3637 126.865 59.5963 126.865C57.8289 126.865 56.3961 128.3 56.3961 130.07C56.3961 131.839 57.8289 133.274 59.5963 133.274Z" fill="#3F3D56"/>
<path d="M96.7793 63.9974C97.8735 63.9974 98.7604 63.1093 98.7604 62.0137C98.7604 60.9182 97.8735 60.03 96.7793 60.03C95.6852 60.03 94.7983 60.9182 94.7983 62.0137C94.7983 63.1093 95.6852 63.9974 96.7793 63.9974Z" fill="#3F3D56"/>
<path d="M69.3086 105.655H21.6909L11.3876 71.9322H79.9194L79.8571 72.1306L69.3086 105.655ZM21.9164 105.35H69.085L79.5039 72.2374H11.7995L21.9164 105.35Z" fill="#2F2E41"/>
<path d="M65.5916 103.9H23.7673L14.7174 73.9921H74.9114L74.8566 74.1682L65.5916 103.9Z" fill="#FFA25F"/>
<path d="M80.7733 68.9195L80.4786 68.8412L82.4898 61.2507H94.1888V61.556H82.7244L80.7733 68.9195Z" fill="#2F2E41"/>
<path d="M76.4949 82.1559H14.7172V82.461H76.4949V82.1559Z" fill="#2F2E41"/>
<path d="M72.957 93.3994H18.1524V93.7046H72.957V93.3994Z" fill="#2F2E41"/>
<path d="M45.805 72.0848H45.5002V105.502H45.805V72.0848Z" fill="#2F2E41"/>
<path d="M59.4505 72.0752L57.2627 105.492L57.5669 105.512L59.7547 72.0952L59.4505 72.0752Z" fill="#2F2E41"/>
<path d="M31.8611 72.0749L31.5569 72.0947L33.732 105.512L34.0362 105.492L31.8611 72.0749Z" fill="#2F2E41"/>
<path d="M160.307 133.468H0V133.826H160.307V133.468Z" fill="#2F2E41"/>
<path d="M106.527 11.0852C106.527 11.0852 109.143 18.539 107.533 19.6857C105.924 20.8325 112.965 30.1975 112.965 30.1975L121.415 27.904L116.788 20.068C116.788 20.068 116.184 12.2319 116.184 11.0851C116.184 9.93841 106.527 11.0852 106.527 11.0852Z" fill="#B4705B"/>
<path opacity="0.1" d="M106.527 11.0852C106.527 11.0852 109.143 18.539 107.533 19.6857C105.924 20.8325 112.965 30.1975 112.965 30.1975L121.415 27.904L116.788 20.068C116.788 20.068 116.184 12.2319 116.184 11.0851C116.184 9.93841 106.527 11.0852 106.527 11.0852Z" fill="#D2834A"/>
<path d="M102.137 64.2175C102.137 64.2175 101.374 73.7737 102.137 78.7429C102.901 83.7121 104.046 97.473 104.046 97.473C104.046 97.473 104.046 123.466 108.245 123.848C112.444 124.23 115.498 124.612 115.88 123.084C116.262 121.555 113.971 120.79 115.116 120.026C116.262 119.261 116.643 116.585 115.116 113.527C113.589 110.469 115.116 79.5074 115.116 79.5074L122.369 99.0019C122.369 99.0019 123.133 115.056 123.896 117.35C124.66 119.643 123.133 123.848 125.805 124.23C128.477 124.612 131.531 122.319 133.058 121.555C134.585 120.79 130.768 120.79 131.531 120.408C132.295 120.026 134.585 118.879 133.822 118.497C133.058 118.114 132.295 99.7664 132.295 99.7664C132.295 99.7664 130.195 60.5861 127.523 59.0572C124.851 57.5282 123.133 60.1618 123.133 60.1618L102.137 64.2175Z" fill="#1E1E1E"/>
<path d="M109.008 122.319V125.377C109.008 125.377 105.573 133.69 109.008 133.69C112.444 133.69 115.116 134.551 115.116 133.404V123.084L109.008 122.319Z" fill="#6C63FF"/>
<path d="M131.531 122.314V125.372C131.531 125.372 134.967 133.684 131.531 133.684C128.095 133.684 125.423 134.545 125.423 133.399V123.078L131.531 122.314Z" fill="#6C63FF"/>
<path d="M111.872 16.6277C115.666 16.6277 118.743 13.5473 118.743 9.7473C118.743 5.94733 115.666 2.86685 111.872 2.86685C108.077 2.86685 105 5.94733 105 9.7473C105 13.5473 108.077 16.6277 111.872 16.6277Z" fill="#D2836B"/>
<path d="M109.772 22.5526C109.772 22.5526 111.681 28.2863 114.735 27.1395L117.789 25.9928L123.133 62.6885C123.133 62.6885 118.934 68.8044 112.826 64.982C106.718 61.1595 109.772 22.5526 109.772 22.5526Z" fill="#E4E4E4"/>
<path d="M115.116 21.4058L116.834 17.7745C116.834 17.7745 126.95 22.5526 128.477 24.0816C130.004 25.6105 130.004 27.904 130.004 27.904L127.332 37.4602C127.332 37.4602 128.095 58.4838 128.095 59.2483C128.095 60.0128 130.768 64.2175 128.859 62.6885C126.95 61.1595 126.569 59.6305 125.042 61.924C123.515 64.2175 120.079 66.8932 120.079 66.8932L115.116 21.4058Z" fill="#56538D"/>
<path d="M128.477 48.9276L127.332 59.6305C127.332 59.6305 120.461 65.7465 121.988 66.1287C123.515 66.511 124.278 64.982 124.278 64.982C124.278 64.982 126.95 67.6577 128.477 66.1287C130.004 64.5997 133.822 50.0744 133.822 50.0744L128.477 48.9276Z" fill="#D2834A"/>
<path d="M112.018 0.0232666C110.495 -0.0312617 108.864 -0.0582349 107.58 0.763736C106.989 1.17625 106.471 1.6843 106.046 2.26709C104.796 3.85051 103.715 5.84282 104.179 7.80741L104.719 7.59665C104.719 8.12106 104.603 8.63891 104.378 9.11274C104.454 8.89147 104.709 9.24917 104.641 9.47299L104.046 11.4259C105.023 11.0671 106.239 11.7935 106.388 12.825C106.456 10.5567 106.691 7.9557 108.528 6.62754C109.455 5.95775 110.628 5.75328 111.756 5.57171C112.797 5.4042 113.888 5.24447 114.885 5.58763C115.883 5.93079 116.732 6.95187 116.506 7.98305C116.965 7.82447 117.48 8.1453 117.707 8.57578C117.934 9.00626 117.946 9.51408 117.953 10.0009C118.443 10.3477 119 9.65908 119.2 9.09244C119.669 7.76236 120.086 6.34652 119.833 4.95889C119.581 3.57125 118.451 2.24515 117.043 2.24044C117.214 2.0524 117.305 1.80513 117.297 1.55094L116.136 1.45271C116.431 1.41092 116.702 1.26782 116.903 1.04791C116.437 1.56152 112.772 0.0502485 112.018 0.0232666Z" fill="#4F3838"/>
<path d="M111.681 20.2591C111.681 20.2591 108.573 17.2098 107.455 17.3966C106.336 17.5834 104.809 20.2591 104.809 20.2591C104.809 20.2591 95.6476 23.3171 96.0293 26.375C96.411 29.433 100.61 44.3406 100.61 44.3406C100.61 44.3406 104.046 62.3062 100.992 64.2175C97.938 66.1287 115.498 71.0979 115.88 68.8044C116.262 66.511 117.025 43.5761 115.88 40.1359C114.735 36.6957 111.681 20.2591 111.681 20.2591Z" fill="#56538D"/>
<path d="M125.042 26.375H129.762C129.762 26.375 133.058 40.9004 133.44 42.4294C133.822 43.9584 134.585 51.2211 134.203 51.2211C133.822 51.2211 126.187 49.6921 126.187 50.8388L125.042 26.375Z" fill="#514E89"/>
<path d="M124.882 62.3446H106.812C105.048 54.2219 104.901 46.3739 106.812 38.8758H124.882C121.966 46.2391 121.783 54.0333 124.882 62.3446Z" fill="#F2F2F2"/>
<path d="M99.465 52.3678L104.809 54.6613C104.809 54.6613 115.116 56.1903 115.116 51.9856C115.116 47.7809 104.809 50.0744 104.809 50.0744L101.373 48.9743L99.465 52.3678Z" fill="#D2834A"/>
<path d="M100.61 24.0816L96.0293 25.2283L92.5937 45.4874C92.5937 45.4874 91.4484 50.8388 93.3571 51.2211C95.2658 51.6033 100.61 54.6613 100.61 54.6613C100.61 54.6613 101.374 48.9276 102.901 48.9276L99.0832 45.8696L101.374 32.491L100.61 24.0816Z" fill="#514E89"/>
<path d="M35.8272 63.2239H10.7793V63.5822H35.8272V63.2239Z" fill="#F2F2F2"/>
<path d="M17.9358 59.9991H17.578V63.3134H17.9358V59.9991Z" fill="#F2F2F2"/>
<path d="M28.8496 59.9991H28.4918V63.3134H28.8496V59.9991Z" fill="#F2F2F2"/>
<path d="M44.594 10.1951H19.5461V10.5534H44.594V10.1951Z" fill="#F2F2F2"/>
<path d="M37.7953 10.4638H37.4374V13.7781H37.7953V10.4638Z" fill="#F2F2F2"/>
<path d="M26.8815 10.4638H26.5237V13.7781H26.8815V10.4638Z" fill="#F2F2F2"/>
<path d="M69.8208 45.4879H44.7729V45.8462H69.8208V45.4879Z" fill="#F2F2F2"/>
<path d="M63.0221 45.7566H62.6643V49.0709H63.0221V45.7566Z" fill="#F2F2F2"/>
<path d="M52.1084 45.7566H51.7505V49.0709H52.1084V45.7566Z" fill="#F2F2F2"/>
<path d="M27.2394 45.3087H2.19144V45.667H27.2394V45.3087Z" fill="#F2F2F2"/>
<path d="M20.4406 45.5775H20.0828V48.8918H20.4406V45.5775Z" fill="#F2F2F2"/>
<path d="M9.52689 45.5775H9.16907V48.8918H9.52689V45.5775Z" fill="#F2F2F2"/>
<path d="M57.2969 27.3936H32.249V27.7519H57.2969V27.3936Z" fill="#F2F2F2"/>
<path d="M39.4055 24.1689H39.0477V27.4832H39.4055V24.1689Z" fill="#F2F2F2"/>
<path d="M50.3193 24.1689H49.9614V27.4832H50.3193V24.1689Z" fill="#F2F2F2"/>
</g>
<defs>
<clipPath id="clip0_1_3">
<rect width="160.307" height="134" fill="white"/>
</clipPath>
</defs>
</svg>
